<svg width="20" height="21" viewBox="0 0 20 21" fill="none" xmlns="http://www.w3.org/2000/svg">
<path fill-rule="evenodd" clip-rule="evenodd" d="M10.0083 0.0193481C4.47396 0.0193481 0 4.60266 0 10.2728C0 14.8053 2.86662 18.642 6.84338 19.9999C7.34058 20.102 7.5227 19.7793 7.5227 19.5078C7.5227 19.2701 7.50631 18.4553 7.50631 17.6064C4.72225 18.2176 4.14249 16.3841 4.14249 16.3841C3.69508 15.1957 3.03215 14.8903 3.03215 14.8903C2.12092 14.2622 3.09852 14.2622 3.09852 14.2622C4.1093 14.3301 4.63969 15.3147 4.63969 15.3147C5.53432 16.8764 6.97592 16.4351 7.55588 16.1634C7.63865 15.5014 7.90394 15.043 8.18563 14.7885C5.96514 14.5507 3.62891 13.668 3.62891 9.72952C3.62891 8.60911 4.02634 7.69244 4.65608 6.97953C4.55672 6.72495 4.20866 5.67224 4.75564 4.26329C4.75564 4.26329 5.60069 3.99162 7.5061 5.31578C8.32188 5.09134 9.16317 4.97716 10.0083 4.9762C10.8533 4.9762 11.7148 5.09516 12.5102 5.31578C14.4159 3.99162 15.2609 4.26329 15.2609 4.26329C15.8079 5.67224 15.4596 6.72495 15.3603 6.97953C16.0066 7.69244 16.3876 8.60911 16.3876 9.72952C16.3876 13.668 14.0514 14.5337 11.8143 14.7885C12.179 15.111 12.4936 15.722 12.4936 16.6897C12.4936 18.0647 12.4773 19.1682 12.4773 19.5076C12.4773 19.7793 12.6596 20.102 13.1566 20.0001C17.1333 18.6418 20 14.8053 20 10.2728C20.0163 4.60266 15.526 0.0193481 10.0083 0.0193481Z" fill="white"/>
</svg>
