<svg width="40" height="40" viewBox="0 0 40 40" fill="none" xmlns="http://www.w3.org/2000/svg">
<circle cx="20" cy="20" r="20" fill="white"/>
<path fill-rule="evenodd" clip-rule="evenodd" d="M20.0083 10C14.474 10 10 14.5833 10 20.2535C10 24.786 12.8666 28.6226 16.8434 29.9805C17.3406 30.0826 17.5227 29.7599 17.5227 29.4885C17.5227 29.2508 17.5063 28.436 17.5063 27.587C14.7222 28.1983 14.1425 26.3647 14.1425 26.3647C13.6951 25.1764 13.0321 24.871 13.0321 24.871C12.1209 24.2429 13.0985 24.2429 13.0985 24.2429C14.1093 24.3108 14.6397 25.2954 14.6397 25.2954C15.5343 26.857 16.9759 26.4158 17.5559 26.1441C17.6386 25.482 17.9039 25.0237 18.1856 24.7691C15.9651 24.5314 13.6289 23.6487 13.6289 19.7102C13.6289 18.5898 14.0263 17.6731 14.6561 16.9602C14.5567 16.7056 14.2087 15.6529 14.7556 14.2439C14.7556 14.2439 15.6007 13.9723 17.5061 15.2964C18.3219 15.072 19.1632 14.9578 20.0083 14.9569C20.8533 14.9569 21.7148 15.0758 22.5102 15.2964C24.4159 13.9723 25.2609 14.2439 25.2609 14.2439C25.8079 15.6529 25.4596 16.7056 25.3603 16.9602C26.0066 17.6731 26.3876 18.5898 26.3876 19.7102C26.3876 23.6487 24.0514 24.5143 21.8143 24.7691C22.179 25.0916 22.4936 25.7026 22.4936 26.6703C22.4936 28.0453 22.4773 29.1489 22.4773 29.4883C22.4773 29.7599 22.6596 30.0826 23.1566 29.9808C27.1333 28.6224 30 24.786 30 20.2535C30.0163 14.5833 25.526 10 20.0083 10Z" fill="#141313"/>
</svg>
