<svg width="40" height="40" viewBox="0 0 40 40" fill="none" xmlns="http://www.w3.org/2000/svg">
<circle cx="20" cy="20" r="20" fill="#141313" fill-opacity="0.05"/>
<path fill-rule="evenodd" clip-rule="evenodd" d="M14.1074 13.6908C15.5718 12.2263 17.9462 12.2263 19.4107 13.6908C20.8751 15.1552 20.8751 17.5296 19.4107 18.9941C18.8656 19.5392 18.1944 19.8814 17.491 20.0207L19.5626 22.0922C19.7019 21.3889 20.0441 20.7177 20.5892 20.1726C22.0537 18.7081 24.428 18.7081 25.8925 20.1726C27.357 21.6371 27.357 24.0114 25.8925 25.4759C24.5276 26.8408 22.3724 26.9336 20.9 25.7543L20.8838 25.7705L20.5892 25.4759L14.1074 18.9941L13.8128 18.6994L13.8289 18.6833C12.6497 17.2109 12.7425 15.0557 14.1074 13.6908ZM21.7677 24.2974C22.5813 25.111 23.9004 25.111 24.714 24.2974C25.5276 23.4838 25.5276 22.1647 24.714 21.3511C23.9004 20.5375 22.5813 20.5375 21.7677 21.3511C20.9541 22.1647 20.9541 23.4838 21.7677 24.2974ZM18.2322 17.8156C17.4186 18.6292 16.0995 18.6292 15.2859 17.8156C14.4723 17.002 14.4723 15.6829 15.2859 14.8693C16.0995 14.0557 17.4186 14.0557 18.2322 14.8693C19.0458 15.6829 19.0458 17.002 18.2322 17.8156Z" fill="#141313"/>
</svg>
